<svg width="33" height="33" viewBox="0 0 33 33" fill="none" xmlns="http://www.w3.org/2000/svg">
<rect opacity="0.15" x="0.810913" y="0.75" width="30.9221" height="30.84" rx="15.42" stroke="#0A142F" stroke-width="1.5"/>
<path fill-rule="evenodd" clip-rule="evenodd" d="M13.3622 21.5599H10.8683V14.0969H13.3622V21.5599Z" fill="#0A142F"/>
<path fill-rule="evenodd" clip-rule="evenodd" d="M12.1078 12.4384H12.0937C11.3494 12.4384 10.8683 11.8853 10.8683 11.1941C10.8683 10.4883 11.3641 9.95074 12.1224 9.95074C12.8808 9.95074 13.3478 10.4883 13.3622 11.1941C13.3622 11.8853 12.8808 12.4384 12.1078 12.4384Z" fill="#0A142F"/>
<path fill-rule="evenodd" clip-rule="evenodd" d="M22.5069 21.5597H20.0561V17.6587C20.0561 16.6788 19.7015 16.0102 18.8143 16.0102C18.1372 16.0102 17.7339 16.461 17.5567 16.8963C17.4919 17.0524 17.476 17.2697 17.476 17.4877V21.5599H15.0249C15.0249 21.5599 15.0572 14.9525 15.0249 14.2683H17.476V15.3011C17.8013 14.8046 18.3839 14.0969 19.6851 14.0969C21.2979 14.0969 22.507 15.1392 22.507 17.3789L22.5069 21.5597Z" fill="#0A142F"/>
</svg>
