<svg width="33" height="33" viewBox="0 0 33 33" fill="none" xmlns="http://www.w3.org/2000/svg">
<rect opacity="0.15" x="0.871582" y="0.75" width="30.9221" height="30.84" rx="15.42" stroke="#0A142F" stroke-width="1.5"/>
<path fill-rule="evenodd" clip-rule="evenodd" d="M16.1766 14.0357L16.2 14.4302L15.8095 14.3819C14.3883 14.1967 13.1467 13.5687 12.0925 12.5139L11.5771 11.9906L11.4443 12.377C11.1632 13.2386 11.3428 14.1484 11.9285 14.7603C12.2409 15.0985 12.1706 15.1468 11.6318 14.9455C11.4443 14.8811 11.2804 14.8328 11.2647 14.8569C11.2101 14.9133 11.3975 15.646 11.5459 15.9359C11.7489 16.3385 12.1628 16.733 12.6157 16.9665L12.9983 17.1517L12.5454 17.1597C12.1081 17.1597 12.0925 17.1678 12.1393 17.3369C12.2955 17.8602 12.9124 18.4158 13.5996 18.6573L14.0838 18.8264L13.6621 19.0841C13.0374 19.4545 12.3033 19.6638 11.5693 19.6799C11.2179 19.688 10.929 19.7202 10.929 19.7443C10.929 19.8248 11.8816 20.2757 12.4361 20.4529C14.0994 20.9762 16.075 20.7508 17.5587 19.857C18.6129 19.221 19.6671 17.9568 20.1591 16.733C20.4246 16.0808 20.6901 14.8892 20.6901 14.3175C20.6901 13.9471 20.7135 13.8988 21.1508 13.456C21.4085 13.1983 21.6506 12.9165 21.6975 12.836C21.7755 12.683 21.7677 12.683 21.3695 12.8199C20.7057 13.0614 20.612 13.0292 20.94 12.6669C21.1821 12.4092 21.471 11.9422 21.471 11.8054C21.471 11.7812 21.3539 11.8215 21.2211 11.8939C21.0806 11.9744 20.7682 12.0952 20.5339 12.1677L20.1122 12.3046L19.7296 12.0389C19.5188 11.8939 19.222 11.7329 19.0659 11.6846C18.6676 11.5719 18.0585 11.588 17.6993 11.7168C16.7232 12.0791 16.1063 13.0131 16.1766 14.0357Z" fill="#0A142F"/>
</svg>
